<?xml version="1.0" encoding="iso-8859-1"?>
<!-- Generator: Adobe Illustrator 19.1.0, SVG Export Plug-In . SVG Version: 6.00 Build 0)  -->
<svg version="1.1" id="Capa_1" xmlns="http://www.w3.org/2000/svg" xmlns:xlink="http://www.w3.org/1999/xlink" x="0px" y="0px"
	 viewBox="0 0 49.177 49.177" style="enable-background:new 0 0 49.177 49.177;" xml:space="preserve">
<g>
	<path style="fill:#010002;" d="M20.839,33.13c-0.201-0.212-0.408-0.431-0.589-0.687c-0.1-0.142-0.254-0.225-0.434-0.219
		c-0.172,0.005-0.33,0.094-0.421,0.24c-0.18,0.282-0.376,0.491-0.583,0.712c-0.046,0.049-0.092,0.101-0.138,0.151
		c-0.095-0.106-0.192-0.209-0.291-0.313c-0.249-0.26-0.508-0.528-0.774-0.918c-0.098-0.143-0.254-0.222-0.434-0.225
		c-0.173,0.003-0.334,0.093-0.426,0.239c-0.229,0.359-0.485,0.633-0.733,0.898c-0.13,0.139-0.26,0.283-0.387,0.435
		c-0.093-0.105-0.187-0.209-0.287-0.315c-0.2-0.212-0.408-0.431-0.589-0.687c-0.099-0.142-0.255-0.225-0.434-0.219
		c-0.172,0.005-0.33,0.094-0.421,0.24c-0.18,0.282-0.375,0.491-0.582,0.711c-0.352,0.375-0.716,0.763-0.914,1.451
		c-0.005,0.014-0.007,0.026-0.011,0.041c-0.141,0.695,0.104,1.29,0.674,1.63c0.316,0.188,0.714,0.279,1.121,0.279
		c0.375,0,0.753-0.084,1.087-0.233c0.409,0.473,1.083,0.749,1.866,0.749c0.726,0,1.371-0.243,1.809-0.642
		c0.233,0.076,0.479,0.127,0.739,0.127c0.53,0,1.077-0.154,1.481-0.45c0.494-0.361,0.716-0.891,0.611-1.439
		C21.667,34.007,21.246,33.56,20.839,33.13z M13.589,35.412c-0.13-0.076-0.255-0.2-0.196-0.519c0.131-0.438,0.37-0.691,0.67-1.012
		c0.09-0.096,0.185-0.196,0.282-0.308c0.084,0.093,0.167,0.181,0.246,0.265c0.186,0.196,0.342,0.37,0.461,0.545
		c-0.05,0.118-0.102,0.232-0.141,0.369c-0.004,0.014-0.007,0.027-0.01,0.041c-0.045,0.223-0.046,0.416-0.03,0.596
		C14.476,35.578,13.915,35.607,13.589,35.412z M17.135,36.062c-0.477,0-0.9-0.154-1.102-0.401c-0.135-0.165-0.176-0.376-0.126-0.644
		c0.17-0.571,0.474-0.895,0.858-1.304c0.135-0.144,0.279-0.298,0.425-0.472c0.158,0.184,0.308,0.34,0.447,0.486
		c0.401,0.418,0.666,0.693,0.82,1.287c0.057,0.235,0.022,0.429-0.105,0.59C18.133,35.883,17.656,36.062,17.135,36.062z
		 M20.556,35.296c-0.272,0.199-0.708,0.283-1.073,0.237c0.044-0.241,0.038-0.497-0.026-0.767c-0.052-0.203-0.117-0.378-0.188-0.539
		c0.092-0.113,0.18-0.224,0.294-0.346c0.09-0.096,0.186-0.197,0.282-0.309c0.084,0.093,0.167,0.181,0.246,0.265
		c0.354,0.374,0.609,0.644,0.67,1.027C20.783,34.981,20.779,35.133,20.556,35.296z"/>
	<path style="fill:#010002;" d="M6.632,25.704L6.632,25.704h1.212c0.568,0,1.029-0.462,1.029-1.031c0-0.568-0.461-1.029-1.03-1.029
		c0,0,0,0-0.001,0l-1.21,0.001c-0.569,0-1.03,0.462-1.029,1.031C5.603,25.243,6.063,25.704,6.632,25.704z"/>
	<path style="fill:#010002;" d="M49.15,22.983c-0.13-0.554-0.685-0.899-1.238-0.768l-13.676,3.19c0.041-0.255,0.07-0.507,0.07-0.746
		c0-0.272-0.109-0.535-0.302-0.729c-0.193-0.193-0.455-0.302-0.728-0.302h0l-22.798,0.014c-0.569,0-1.03,0.462-1.029,1.03
		c0,0.569,0.461,1.029,1.03,1.029l21.587-0.012c-0.514,1.556-2.076,3.242-4.089,3.242H6.33c-2.015,0-3.576-1.687-4.089-3.243H3.71
		c0.568,0,1.029-0.461,1.029-1.03c0-0.569-0.461-1.03-1.029-1.03H1.03c-0.569,0-1.03,0.461-1.03,1.03
		c0,2.583,2.466,6.334,6.33,6.334h21.646c2.45,0,4.335-1.509,5.389-3.271c0.003-0.001,0.005,0,0.008-0.001L48.38,24.22
		C48.934,24.092,49.279,23.538,49.15,22.983z"/>
	<path style="fill:#010002;" d="M16.525,20.359c0.136,0.161,0.33,0.245,0.525,0.245c0.156,0,0.313-0.054,0.442-0.162
		c0.29-0.245,0.327-0.679,0.082-0.968c-0.746-0.885-0.436-1.549,0.223-2.739c0.654-1.183,1.551-2.802-0.287-4.472
		c-0.28-0.256-0.715-0.235-0.969,0.046c-0.256,0.28-0.234,0.715,0.046,0.97c0.989,0.899,0.701,1.54,0.008,2.79
		C15.979,17.184,15.133,18.711,16.525,20.359z"/>
	<path style="fill:#010002;" d="M22.036,21.213c0.136,0.161,0.329,0.244,0.525,0.244c0.156,0,0.314-0.054,0.442-0.162
		c0.29-0.245,0.327-0.679,0.082-0.969c-0.486-0.576-0.334-0.987,0.189-1.935c0.5-0.903,1.257-2.268-0.252-3.64
		c-0.28-0.256-0.715-0.235-0.969,0.045c-0.256,0.28-0.234,0.716,0.046,0.971c0.67,0.609,0.517,0.979-0.025,1.959
		C21.604,18.576,20.894,19.858,22.036,21.213z"/>
	<path style="fill:#010002;" d="M11.144,21.213c0.136,0.161,0.329,0.244,0.524,0.244c0.157,0,0.314-0.054,0.443-0.162
		c0.29-0.245,0.327-0.679,0.081-0.969c-0.486-0.576-0.334-0.987,0.19-1.935c0.5-0.903,1.256-2.268-0.252-3.64
		c-0.28-0.256-0.715-0.235-0.969,0.045c-0.256,0.28-0.235,0.716,0.045,0.971c0.67,0.609,0.518,0.979-0.025,1.959
		C10.71,18.576,10,19.858,11.144,21.213z"/>
</g>
<g>
</g>
<g>
</g>
<g>
</g>
<g>
</g>
<g>
</g>
<g>
</g>
<g>
</g>
<g>
</g>
<g>
</g>
<g>
</g>
<g>
</g>
<g>
</g>
<g>
</g>
<g>
</g>
<g>
</g>
</svg>
