<?xml version="1.0" encoding="iso-8859-1"?>
<!-- Generator: Adobe Illustrator 19.0.0, SVG Export Plug-In . SVG Version: 6.00 Build 0)  -->
<svg version="1.1" id="Layer_1" xmlns="http://www.w3.org/2000/svg" xmlns:xlink="http://www.w3.org/1999/xlink" x="0px" y="0px"
	 viewBox="0 0 511.998 511.998" style="enable-background:new 0 0 511.998 511.998;" xml:space="preserve">
<path style="fill:#945C2B;" d="M394.838,225.16c-2.189-1.908-4.371-3.954-6.537-6.144c-53.495-54.072-112.168-35.087-132.301-14.956
	c-20.133-20.131-78.806-39.116-132.301,14.956C70.205,273.087,8.082,239.15,8.082,239.15
	c32.788,92.61,127.123,73.052,127.123,73.052l-8.628,16.106c125.398,0,129.424-65.576,129.424-65.576s4.026,65.576,129.424,65.576
	l-8.628-16.106c0,0,94.336,19.558,127.123-73.052c0,0-41.717,22.788-86.216,1.264"/>
<path style="fill:#844719;" d="M196.972,315.718c-37.289,0-67.517-30.23-67.517-67.517c0-14.927,4.853-28.715,13.053-39.892
	c-4.321,3.326-8.681,7.11-13.046,11.42c-8.876,10.111-20.197,17.178-29.235,21.699l-1.391,0.928l-0.002,0.001l-0.001,0.001
	l-0.117,0.056l-1.516,0.724c-0.011,0.005-0.022,0.01-0.031,0.015l-0.031,0.015c-0.442,0.204-0.945,0.429-1.445,0.649l-0.882,0.388
	c-0.63,0.269-1.305,0.548-2.056,0.851l-0.269,0.111c-0.318,0.126-0.646,0.252-0.977,0.379c-0.413,0.157-0.821,0.31-1.215,0.455
	l-0.04,0.014c-0.002,0.001-0.004,0.002-0.008,0.003l-0.516,0.184l-0.279,0.099c-0.513,0.182-1.02,0.36-1.493,0.519l-0.013,0.004
	c-0.009,0.003-0.018,0.006-0.027,0.01l-0.492,0.162l-0.385,0.127c-0.011,0.003-0.022,0.006-0.031,0.01
	c-0.389,0.127-0.804,0.258-1.26,0.399c-0.052,0.016-0.107,0.034-0.157,0.05l-0.171,0.052l-0.752,0.228
	c-0.382,0.113-0.795,0.227-1.205,0.342c-0.12,0.034-0.242,0.07-0.363,0.103l-0.613,0.17l-0.11,0.03
	c-0.24,0.065-0.49,0.128-0.739,0.193c-0.478,0.124-0.952,0.245-1.397,0.352l-0.053,0.012c0,0-0.001,0.001-0.002,0.001l-0.554,0.127
	c-0.22,0.052-0.423,0.095-0.636,0.143c-0.349,0.08-0.704,0.163-1.031,0.233l-0.018,0.004c-0.003,0.001-0.008,0.002-0.012,0.002
	l-0.847,0.176c-0.072,0.015-0.147,0.028-0.22,0.043c-0.396,0.081-0.795,0.161-1.178,0.233l-0.881,0.163
	c-0.485,0.086-0.969,0.168-1.452,0.247l-0.769,0.124c-0.01,0.001-0.018,0.002-0.027,0.003l-0.022,0.003
	c-0.568,0.087-1.18,0.175-1.793,0.255l-0.122,0.017l-0.212,0.03c-0.011,0.001-0.019,0.002-0.029,0.003l-0.051,0.006
	c-0.638,0.082-1.327,0.162-2.013,0.235c-0.012,0.001-0.024,0.003-0.036,0.004l-0.019,0.001c-0.003,0.001-0.008,0.001-0.012,0.001
	l-0.713,0.071c-0.073,0.008-0.148,0.013-0.219,0.019c-0.409,0.04-0.82,0.079-1.205,0.111l-0.624,0.048l-0.237,0.018
	c-0.277,0.02-0.566,0.039-0.852,0.057c-0.158,0.011-0.32,0.023-0.476,0.032l-0.804,0.046c-0.005,0.001-0.011,0.001-0.015,0.001H63.1
	c-0.464,0.025-0.957,0.045-1.449,0.062l-0.159,0.005l-0.455,0.018c-0.015,0.001-0.026,0.001-0.041,0.001H60.99
	c-0.061,0.002-0.13,0.002-0.194,0.003c-0.606,0.017-1.208,0.03-1.776,0.037l-0.135,0.001h-0.022h-0.011h-0.017l-0.156-0.001
	l-0.637,0.002h-0.042c-0.001,0-0.002,0-0.003,0h-0.009c-0.048,0-0.1-0.001-0.15-0.001c-0.294-0.001-0.592-0.001-0.857-0.004
	l-0.029-0.001c-0.001,0-0.002,0-0.003,0l-0.133-0.002l-0.584-0.01c-0.448-0.009-0.886-0.019-1.302-0.032h-0.001
	c-0.006,0-0.013-0.001-0.02-0.001l-0.3-0.011l-0.431-0.015c-0.011-0.001-0.019-0.001-0.029-0.001h-0.006
	c-0.051-0.002-0.106-0.005-0.156-0.008c-0.379-0.016-0.754-0.032-1.117-0.052l-0.691-0.039l-0.027-0.001
	c-0.507-0.03-1.038-0.067-1.566-0.106l-0.222-0.016l-0.121-0.009c-0.002,0-0.006-0.001-0.009-0.001l-0.019-0.001
	c-0.334-0.026-0.687-0.06-1.033-0.09c-0.262-0.023-0.534-0.044-0.785-0.069l-0.017-0.001c-0.008-0.001-0.015-0.001-0.023-0.002
	l-0.242-0.025l-0.329-0.033c-0.437-0.045-0.872-0.092-1.271-0.137l-0.185-0.023l-0.534-0.064c-0.124-0.015-0.251-0.032-0.377-0.047
	c-0.262-0.033-0.527-0.066-0.78-0.099l-0.3-0.041l-0.408-0.055c-0.331-0.046-0.676-0.098-1.021-0.15
	c-0.068-0.01-0.136-0.019-0.204-0.029l-0.532-0.08c-0.011-0.001-0.019-0.003-0.029-0.004l-0.013-0.002
	c-0.546-0.086-1.122-0.18-1.692-0.279l-0.305-0.055c-0.251-0.045-0.492-0.091-0.738-0.136c-0.211-0.039-0.435-0.078-0.635-0.115
	l-0.02-0.003c-0.002-0.001-0.005-0.001-0.008-0.002l-0.578-0.113c-0.366-0.072-0.734-0.144-1.098-0.22l-0.617-0.129
	c-0.348-0.074-0.706-0.153-1.129-0.247l-0.272-0.061l-0.206-0.045c-0.037-0.009-0.076-0.018-0.114-0.027
	c-0.373-0.085-0.756-0.176-1.179-0.278l-0.064-0.015l-0.197-0.046c-0.004-0.001-0.008-0.002-0.011-0.002l-0.023-0.005
	c-0.474-0.115-0.972-0.241-1.456-0.366l-1.484-0.395l-3.214-0.934l-0.074-0.022c-0.009-0.003-0.017-0.005-0.025-0.008l-0.055-0.016
	c-0.362-0.112-0.791-0.247-1.195-0.377l-0.145-0.047c-0.396-0.128-0.742-0.242-1.071-0.352c-0.016-0.004-0.031-0.01-0.047-0.015
	l-0.35-0.119l-0.019-0.006c-2.02-0.683-4.251-0.108-5.692,1.46c-0.015,0.016-0.031,0.028-0.045,0.043
	c-0.164,0.183-0.31,0.378-0.445,0.577c-0.014,0.019-0.03,0.037-0.043,0.055c-0.409,0.622-0.673,1.314-0.801,2.032
	c-0.008,0.046-0.023,0.09-0.029,0.137c-0.017,0.107-0.016,0.214-0.025,0.322c-0.082,0.922,0.059,1.867,0.465,2.742
	c25.272,54.464,74.313,62.595,101.296,62.595c12.425,0,20.826-1.715,20.867-1.724h0.003h0.002l-4.101,7.657
	c-0.002,0.002-0.003,0.007-0.005,0.009l-0.207,0.387c-0.672,1.254-0.807,2.702-0.427,4.032c0.013,0.04,0.025,0.08,0.038,0.122
	c0.133,0.423,0.315,0.833,0.554,1.221c0.108,0.172,0.227,0.334,0.352,0.492c0.046,0.059,0.094,0.115,0.142,0.172
	c0.408,0.475,0.891,0.872,1.429,1.174c0.064,0.036,0.125,0.069,0.19,0.103c0.518,0.265,1.08,0.444,1.665,0.534
	c0.194,0.029,0.387,0.053,0.586,0.059c0.123,0.007,0.242,0.022,0.367,0.018c53.238-1.448,82.281-15.528,97.816-28.422
	C226.683,310.503,212.439,315.718,196.972,315.718z"/>
<path style="fill:#A06335;" d="M503.806,252.143c0.015-0.068,0.033-0.135,0.044-0.203c0.033-0.213,0.055-0.428,0.064-0.643
	c0.001-0.011,0.002-0.023,0.003-0.033c0.008-0.228,0.001-0.458-0.019-0.686c-0.01-0.108-0.01-0.215-0.024-0.322
	c-0.002-0.011-0.005-0.022-0.008-0.031c-0.005-0.037-0.018-0.072-0.024-0.11c-0.058-0.323-0.152-0.639-0.265-0.948
	c-0.024-0.058-0.043-0.117-0.068-0.175c-0.127-0.312-0.278-0.618-0.468-0.905c-0.013-0.019-0.029-0.037-0.042-0.055
	c-0.136-0.199-0.282-0.394-0.446-0.578c-0.017-0.019-0.038-0.034-0.057-0.054c-0.718-0.778-1.631-1.31-2.616-1.563
	c-0.011-0.003-0.022-0.003-0.031-0.005c-0.238-0.059-0.477-0.105-0.722-0.131c-0.053-0.005-0.107-0.002-0.159-0.006
	c-0.203-0.016-0.404-0.03-0.608-0.023c-0.116,0.004-0.232,0.025-0.347,0.037c-0.142,0.014-0.286,0.02-0.428,0.046
	c-0.259,0.046-0.515,0.112-0.769,0.198l-0.37,0.125c-0.029,0.01-0.06,0.019-0.088,0.029c-0.317,0.106-0.65,0.215-1.03,0.338
	l-0.147,0.047c-0.403,0.13-0.832,0.265-1.195,0.377l-0.059,0.017c-0.007,0.002-0.013,0.004-0.021,0.006l-0.065,0.018l-3.224,0.937
	l-1.485,0.395c-0.483,0.126-0.982,0.251-1.456,0.366l-0.022,0.005c-0.004,0-0.009,0.001-0.012,0.002l-0.096,0.023l-0.164,0.039
	c-0.419,0.101-0.797,0.191-1.168,0.275c-0.004,0.001-0.009,0.002-0.013,0.003c-0.037,0.009-0.075,0.018-0.113,0.027l-0.204,0.045
	l-0.274,0.061c-0.423,0.094-0.782,0.172-1.129,0.247l-0.617,0.129c-0.363,0.075-0.732,0.148-1.097,0.22l-0.578,0.113
	c-0.003,0.001-0.005,0.001-0.008,0.002l-0.02,0.003c-0.118,0.023-0.251,0.046-0.381,0.069c-0.328,0.061-0.652,0.122-0.99,0.181
	l-0.304,0.055c-0.571,0.098-1.147,0.193-1.692,0.279l-0.014,0.002c-0.011,0.001-0.02,0.003-0.029,0.004l-0.531,0.08
	c-0.022,0.003-0.042,0.006-0.064,0.009c-0.395,0.059-0.787,0.117-1.164,0.17l-0.408,0.055l-0.298,0.041
	c-0.252,0.033-0.517,0.066-0.781,0.099c-0.124,0.016-0.251,0.032-0.376,0.047l-0.655,0.079l-0.066,0.008
	c-0.4,0.045-0.832,0.092-1.27,0.137l-0.33,0.033l-0.241,0.025c-0.008,0.001-0.016,0.001-0.024,0.002l-0.015,0.001
	c-0.11,0.011-0.23,0.02-0.345,0.03c-0.499,0.046-0.999,0.093-1.474,0.129l-0.018,0.001c-0.003,0-0.005,0.001-0.009,0.001
	l-0.043,0.003l-0.3,0.022c-0.529,0.039-1.059,0.075-1.566,0.106l-0.028,0.001l-0.689,0.037c-0.309,0.016-0.629,0.03-0.949,0.044
	c-0.108,0.004-0.221,0.011-0.325,0.015h-0.008c-0.01,0-0.019,0.001-0.028,0.001l-0.432,0.015l-0.298,0.011
	c-0.006,0-0.014,0.001-0.02,0.001h-0.001c-0.415,0.013-0.854,0.024-1.303,0.032l-0.254,0.004l-0.461,0.009c-0.002,0-0.004,0-0.005,0
	l-0.027,0.001c-0.161,0.001-0.344,0.002-0.52,0.002c-0.162,0.001-0.326,0.003-0.485,0.003h-0.009c-0.001,0-0.002,0-0.003,0h-0.042
	l-0.273-0.001l-0.39-0.001l-0.128,0.001h-0.019h-0.009h-0.023l-0.135-0.001c-0.487-0.004-1.006-0.017-1.526-0.031
	c-0.144-0.004-0.301-0.004-0.443-0.009h-0.005c-0.015-0.001-0.027-0.001-0.042-0.001l-0.353-0.014l-0.26-0.01
	c-0.493-0.018-0.986-0.039-1.449-0.062h-0.013c-0.003,0-0.006,0-0.01-0.001l-0.804-0.046c-0.118-0.008-0.241-0.016-0.361-0.025
	c-0.326-0.02-0.652-0.041-0.968-0.065l-0.236-0.018l-0.625-0.048c-0.385-0.032-0.795-0.071-1.203-0.111
	c-0.073-0.006-0.147-0.013-0.219-0.019l-0.714-0.071c-0.008,0-0.015-0.001-0.022-0.002l-0.009-0.001
	c-0.011-0.001-0.023-0.002-0.033-0.003c-0.339-0.037-0.68-0.074-1.015-0.113c-0.342-0.04-0.677-0.081-1-0.122l-0.052-0.006
	c-0.01-0.002-0.019-0.002-0.028-0.003l-0.172-0.025l-0.161-0.023c-0.614-0.082-1.225-0.168-1.795-0.255l-0.031-0.005
	c-0.006,0-0.011-0.001-0.016-0.002l-0.769-0.124c-0.483-0.079-0.966-0.159-1.452-0.247l-0.881-0.163
	c-0.296-0.056-0.608-0.119-0.918-0.181c-0.158-0.032-0.321-0.063-0.479-0.095l-0.847-0.176c-0.004-0.001-0.009-0.002-0.013-0.002
	l-0.017-0.004c-0.328-0.07-0.683-0.153-1.03-0.233c-0.213-0.048-0.417-0.092-0.637-0.143l-0.554-0.127
	c-0.005-0.001-0.01-0.003-0.015-0.003l-0.04-0.009c-0.078-0.019-0.165-0.042-0.245-0.061c-0.387-0.095-0.771-0.192-1.151-0.29
	c0,0-0.001,0-0.002,0c-0.248-0.065-0.498-0.128-0.738-0.193l-0.294-0.082l-0.429-0.119c-0.078-0.022-0.157-0.044-0.235-0.067
	c-0.454-0.126-0.91-0.253-1.333-0.379l-0.753-0.228l-0.17-0.052c-0.044-0.014-0.093-0.029-0.138-0.043
	c-0.464-0.143-0.885-0.276-1.281-0.405l-0.015-0.004c-0.004-0.002-0.011-0.003-0.016-0.005l-0.385-0.127l-0.493-0.162
	c-0.01-0.003-0.018-0.006-0.027-0.01l-0.013-0.004c-0.473-0.159-0.98-0.337-1.493-0.519l-0.28-0.099l-0.515-0.184
	c-0.006-0.002-0.012-0.004-0.018-0.006l-0.03-0.011c-0.12-0.044-0.247-0.093-0.368-0.138c-0.277-0.102-0.553-0.205-0.824-0.308
	c-0.008-0.003-0.015-0.005-0.022-0.009c-0.333-0.127-0.66-0.253-0.977-0.379l-0.27-0.111c-0.75-0.302-1.424-0.582-2.055-0.851
	l-0.882-0.388c-0.501-0.22-1.003-0.445-1.445-0.649l-0.03-0.015c-0.013-0.005-0.022-0.01-0.033-0.015l-1.515-0.724l-0.117-0.056
	l-0.001-0.001l-0.002-0.001l-1.392-0.928c-9.038-4.521-20.358-11.588-29.234-21.699c-15.29-15.094-30.511-23.797-44.237-28.619
	c-0.093-0.032-0.185-0.065-0.278-0.097c-1.569-0.546-3.117-1.041-4.645-1.489c-0.154-0.045-0.308-0.092-0.462-0.136
	c-0.465-0.134-0.928-0.265-1.389-0.39c-0.156-0.042-0.309-0.082-0.463-0.123c-0.806-0.215-1.605-0.417-2.399-0.608
	c-0.21-0.051-0.422-0.102-0.631-0.151c-0.391-0.092-0.78-0.178-1.167-0.263c-0.269-0.059-0.537-0.115-0.804-0.172
	c-0.361-0.075-0.723-0.153-1.081-0.223c-0.009-0.002-0.015-0.003-0.022-0.004c-0.722-0.142-1.435-0.276-2.142-0.399
	c-0.019-0.003-0.039-0.006-0.059-0.01c-0.011-0.001-0.019-0.003-0.03-0.005c-0.684-0.119-1.363-0.228-2.034-0.33
	c-0.05-0.008-0.099-0.014-0.148-0.022c-0.023-0.003-0.046-0.006-0.07-0.01c-0.622-0.092-1.239-0.18-1.85-0.258
	c-0.116-0.015-0.231-0.026-0.347-0.041c-0.571-0.071-1.14-0.138-1.699-0.197c-0.133-0.014-0.262-0.025-0.393-0.038
	c-0.009,0-0.016-0.001-0.024-0.002c-0.53-0.054-1.056-0.105-1.576-0.148c-0.142-0.012-0.282-0.022-0.423-0.031
	c-0.058-0.004-0.115-0.009-0.172-0.013c-0.45-0.034-0.901-0.069-1.342-0.097c-0.209-0.013-0.413-0.022-0.62-0.032
	c-0.03-0.001-0.06-0.003-0.092-0.004c-0.398-0.022-0.799-0.045-1.191-0.061c-0.375-0.015-0.74-0.024-1.109-0.033
	c-0.246-0.009-0.497-0.018-0.741-0.023c-0.608-0.012-1.208-0.018-1.799-0.018c-0.924,0-1.841,0.017-2.751,0.045
	c-0.284,0.009-0.564,0.023-0.846,0.033c-0.636,0.025-1.269,0.055-1.897,0.093c-0.306,0.019-0.612,0.039-0.918,0.06
	c-0.631,0.044-1.257,0.096-1.881,0.153c-0.262,0.024-0.525,0.046-0.785,0.071c-0.854,0.086-1.703,0.18-2.543,0.288
	c-0.014,0.001-0.028,0.003-0.043,0.005c-0.88,0.113-1.751,0.241-2.615,0.379c-0.19,0.03-0.377,0.064-0.566,0.095
	c-0.663,0.11-1.323,0.226-1.976,0.349c-0.231,0.044-0.46,0.088-0.69,0.134c-0.637,0.125-1.268,0.256-1.894,0.394
	c-0.195,0.043-0.39,0.084-0.583,0.128c-0.801,0.181-1.594,0.37-2.376,0.57c-0.001,0.001-0.003,0.001-0.005,0.001
	c-2.359,9.242-3.615,18.925-3.615,28.904c0,54.023,36.768,99.453,86.642,112.649c1.32,0.053,2.639,0.106,3.989,0.143
	c0.123,0.002,0.245-0.013,0.366-0.018c0.199-0.006,0.394-0.029,0.588-0.059c0.289-0.044,0.572-0.112,0.848-0.2
	c0.004-0.002,0.01-0.004,0.015-0.004c0.276-0.088,0.543-0.199,0.799-0.331c0.018-0.011,0.038-0.022,0.057-0.031
	c0.044-0.023,0.089-0.046,0.134-0.071c0.264-0.15,0.515-0.322,0.75-0.514c0.009-0.007,0.017-0.015,0.025-0.022
	c0.234-0.194,0.453-0.406,0.653-0.64c0.008-0.009,0.014-0.017,0.022-0.025c0.041-0.048,0.081-0.097,0.121-0.148
	c0.124-0.158,0.246-0.32,0.352-0.492c0.239-0.387,0.42-0.797,0.553-1.221c0.013-0.04,0.026-0.082,0.038-0.124
	c0.093-0.322,0.153-0.651,0.184-0.983c0.001-0.019,0.003-0.036,0.005-0.055c0.086-1.018-0.115-2.06-0.614-2.992l-0.207-0.387
	c-0.002-0.002-0.003-0.006-0.005-0.009l-4.102-7.657h0.002h0.004c0.04,0.009,8.442,1.724,20.867,1.724
	c26.984,0,76.024-8.132,101.295-62.595c0.106-0.227,0.19-0.46,0.263-0.695C503.742,252.466,503.775,252.305,503.806,252.143z"/>
<path style="fill:#231F20;" d="M385.425,336.389c-54.199,0-93.698-11.811-117.401-35.105c-5.263-5.173-9.152-10.39-12.023-15.233
	c-2.871,4.842-6.76,10.06-12.023,15.233c-23.703,23.294-63.202,35.105-117.401,35.105c-2.841,0-5.473-1.492-6.933-3.931
	c-1.459-2.437-1.532-5.462-0.191-7.968l1.407-2.625c-10.014,0.453-23.825,0.014-38.818-3.608
	c-27.2-6.57-63.432-25.161-81.578-76.413c-1.117-3.157-0.171-6.677,2.378-8.848c2.548-2.171,6.174-2.547,9.114-0.941
	c0.126,0.068,14.744,7.844,35.122,9.291c26.758,1.903,50.606-7.525,70.878-28.016c30.747-31.077,61.677-37.665,82.211-37.721
	c0.093-0.001,0.185-0.001,0.278-0.001c24.115,0,43.514,8.455,55.556,17.742c12.044-9.288,31.444-17.742,55.558-17.742
	c0.094,0,0.184,0,0.278,0.001c20.534,0.055,51.464,6.645,82.211,37.721c1.986,2.007,4.039,3.937,6.102,5.735
	c3.365,2.933,3.714,8.038,0.782,11.402c-2.933,3.364-8.038,3.715-11.4,0.781c-2.362-2.058-4.707-4.262-6.972-6.552
	c-26.84-27.129-53.298-32.879-70.766-32.927c-0.077,0-0.154,0-0.231,0c-23.5,0-41.53,9.685-49.848,18.002
	c-3.155,3.155-8.273,3.155-11.426,0c-8.318-8.317-26.35-18.002-49.848-18.002c-0.078,0-0.153,0-0.231,0
	c-17.468,0.047-43.924,5.798-70.765,32.927c-29.812,30.132-62.269,34.422-84.24,32.717c-8.389-0.652-15.892-2.197-22.116-3.937
	c13.561,25.796,34.601,42.272,62.746,49.071c25.624,6.189,47.51,1.784,47.729,1.739c3.065-0.639,6.235,0.561,8.113,3.076
	c1.878,2.514,2.131,5.887,0.65,8.653l-2.106,3.932c103.202-4.29,107.679-57.158,107.714-57.714c0.262-4.262,3.795-7.585,8.066-7.585
	c4.271,0,7.804,3.323,8.066,7.585c0.042,0.504,1.33,14.345,16.229,28.43c13.161,12.439,39.557,27.083,91.482,29.281l-2.104-3.928
	c-1.481-2.766-1.228-6.139,0.651-8.653c1.877-2.515,5.039-3.714,8.113-3.076c0.209,0.041,22.61,4.467,48.286-1.876
	c27.85-6.882,48.693-23.292,62.163-48.887c-17.624,4.948-45.479,8.297-74.702-5.839c-4.017-1.944-5.7-6.775-3.756-10.793
	c1.944-4.017,6.775-5.701,10.794-3.756c40.04,19.366,78.458-0.884,78.842-1.091c2.938-1.586,6.565-1.205,9.101,0.969
	c2.538,2.173,3.487,5.679,2.371,8.83c-18.146,51.252-54.378,69.842-81.578,76.413c-14.993,3.621-28.808,4.06-38.818,3.608
	l1.407,2.625c1.341,2.505,1.269,5.531-0.191,7.968C390.898,334.897,388.266,336.389,385.425,336.389z"/>
<g>
</g>
<g>
</g>
<g>
</g>
<g>
</g>
<g>
</g>
<g>
</g>
<g>
</g>
<g>
</g>
<g>
</g>
<g>
</g>
<g>
</g>
<g>
</g>
<g>
</g>
<g>
</g>
<g>
</g>
</svg>
